<?xml version="1.0" encoding="UTF-8"?>
<svg xmlns="http://www.w3.org/2000/svg" viewBox="0 0 512 512" role="img" aria-label="Apartim">
  <defs>
    <linearGradient id="bg" x1="0" y1="0" x2="0" y2="1">
      <stop offset="0%" stop-color="#1e3348"/>
      <stop offset="100%" stop-color="#0f1721"/>
    </linearGradient>
    <linearGradient id="house" x1="0.2" y1="0" x2="0.2" y2="1">
      <stop offset="0%" stop-color="#6eb8f0"/>
      <stop offset="38%" stop-color="#3d8fd4"/>
      <stop offset="100%" stop-color="#1f5f96"/>
    </linearGradient>
    <filter id="soft" x="-8%" y="-8%" width="116%" height="116%">
      <feDropShadow dx="0" dy="6" stdDeviation="8" flood-color="#000" flood-opacity="0.28"/>
    </filter>
  </defs>

  <rect width="512" height="512" rx="96" fill="url(#bg)"/>

  <g filter="url(#soft)" transform="translate(256 256)">
    <path fill="url(#house)" d="M -118 -92 L 0 -168 L 118 -92 L 118 108 Q 118 128 98 128 L -98 128 Q -118 128 -118 108 Z"/>
    <rect x="72" y="-156" width="28" height="44" rx="4" fill="url(#house)"/>
    <g fill="#0f1721">
      <circle cx="0" cy="-48" r="24"/>
      <rect x="-2" y="-68" width="4" height="40"/>
      <rect x="-20" y="-50" width="40" height="4"/>
      <path d="M -52 -18 L -34 -34 L -16 -18 L -16 8 L -52 8 Z"/>
      <path d="M 16 -18 L 34 -34 L 52 -18 L 52 8 L 16 8 Z"/>
      <rect x="-74" y="44" width="36" height="52" rx="4"/>
      <rect x="-62" y="56" width="12" height="40" rx="2" fill="#1a4a78"/>
      <circle cx="62" cy="72" r="14"/>
      <rect x="58" y="72" width="8" height="24" rx="3"/>
    </g>
  </g>
</svg>
