<svg xmlns="http://www.w3.org/2000/svg" viewBox="0 0 256 256" role="img" aria-label="Apart otel">
  <defs>
    <linearGradient id="apart-bg" x1="0" y1="0" x2="1" y2="1">
      <stop offset="0%" stop-color="#243446"/>
      <stop offset="100%" stop-color="#0c1620"/>
    </linearGradient>
    <linearGradient id="apart-wall" x1="0" y1="0" x2="0" y2="1">
      <stop offset="0%" stop-color="#e8eef4"/>
      <stop offset="100%" stop-color="#b8c5d4"/>
    </linearGradient>
    <linearGradient id="apart-accent" x1="0" y1="0" x2="1" y2="0">
      <stop offset="0%" stop-color="#1f6f5c"/>
      <stop offset="100%" stop-color="#2ecc71"/>
    </linearGradient>
  </defs>
  <rect width="256" height="256" rx="56" fill="url(#apart-bg)"/>
  <circle cx="196" cy="68" r="22" fill="#ffe082" opacity=".95"/>
  <rect x="64" y="72" width="128" height="142" rx="10" fill="url(#apart-wall)"/>
  <rect x="64" y="72" width="128" height="18" rx="10" fill="url(#apart-accent)"/>
  <rect x="78" y="98" width="22" height="18" rx="3" fill="#8ecae6"/>
  <rect x="106" y="98" width="22" height="18" rx="3" fill="#8ecae6"/>
  <rect x="134" y="98" width="22" height="18" rx="3" fill="#8ecae6"/>
  <rect x="162" y="98" width="22" height="18" rx="3" fill="#8ecae6"/>
  <rect x="78" y="124" width="22" height="18" rx="3" fill="#8ecae6"/>
  <rect x="106" y="124" width="22" height="18" rx="3" fill="#ffd166"/>
  <rect x="134" y="124" width="22" height="18" rx="3" fill="#8ecae6"/>
  <rect x="162" y="124" width="22" height="18" rx="3" fill="#8ecae6"/>
  <rect x="78" y="150" width="22" height="18" rx="3" fill="#8ecae6"/>
  <rect x="106" y="150" width="22" height="18" rx="3" fill="#8ecae6"/>
  <rect x="134" y="150" width="22" height="18" rx="3" fill="#8ecae6"/>
  <rect x="162" y="150" width="22" height="18" rx="3" fill="#ffd166"/>
  <rect x="114" y="176" width="28" height="38" rx="4" fill="#1f6f5c"/>
  <rect x="72" y="208" width="112" height="8" rx="4" fill="#1f6f5c" opacity=".5"/>
</svg>
