<svg xmlns="http://www.w3.org/2000/svg" viewBox="0 0 256 256" role="img" aria-label="Apart otel">
  <defs>
    <linearGradient id="apart-g" x1="0" y1="0" x2="0" y2="1">
      <stop offset="0%" stop-color="#5eb3ff"/>
      <stop offset="100%" stop-color="#1a3f7a"/>
    </linearGradient>
  </defs>
  <rect width="256" height="256" rx="48" fill="url(#apart-g)"/>
  <rect x="72" y="56" width="112" height="152" rx="8" fill="#fff" opacity=".15"/>
  <rect x="88" y="72" width="24" height="20" rx="3" fill="#fff" opacity=".85"/>
  <rect x="120" y="72" width="24" height="20" rx="3" fill="#fff" opacity=".85"/>
  <rect x="152" y="72" width="24" height="20" rx="3" fill="#fff" opacity=".85"/>
  <rect x="88" y="104" width="24" height="20" rx="3" fill="#fff" opacity=".85"/>
  <rect x="120" y="104" width="24" height="20" rx="3" fill="#fff" opacity=".85"/>
  <rect x="152" y="104" width="24" height="20" rx="3" fill="#fff" opacity=".85"/>
  <rect x="88" y="136" width="24" height="20" rx="3" fill="#fff" opacity=".85"/>
  <rect x="120" y="136" width="24" height="20" rx="3" fill="#fff" opacity=".85"/>
  <rect x="152" y="136" width="24" height="20" rx="3" fill="#fff" opacity=".85"/>
  <rect x="112" y="168" width="32" height="40" rx="4" fill="#fff" opacity=".95"/>
</svg>
