<svg xmlns="http://www.w3.org/2000/svg" viewBox="0 0 128 128" role="img" aria-label="Deniz">
  <defs>
    <linearGradient id="bg" x1="0" y1="0" x2="0" y2="1">
      <stop offset="0%" stop-color="#c9f3ff"/>
      <stop offset="55%" stop-color="#5ec8e5"/>
      <stop offset="100%" stop-color="#1a9aaa"/>
    </linearGradient>
  </defs>
  <rect width="128" height="128" fill="url(#bg)"/>
  <circle cx="78" cy="48" r="26" fill="#ffe08a"/>
  <circle cx="70" cy="46" r="3.2" fill="#c47b2b"/>
  <circle cx="86" cy="46" r="3.2" fill="#c47b2b"/>
  <path d="M70 56 Q78 64 86 56" fill="none" stroke="#c47b2b" stroke-width="2.8" stroke-linecap="round"/>
  <ellipse cx="66" cy="52" rx="5" ry="3" fill="#ffb3c6" opacity=".7"/>
  <ellipse cx="90" cy="52" rx="5" ry="3" fill="#ffb3c6" opacity=".7"/>
  <path d="M0 86 Q22 74 40 86 T80 86 T128 78 V128 H0 Z" fill="#1a9aaa"/>
  <path d="M0 98 Q28 88 52 98 T104 96 T128 100 V128 H0 Z" fill="#147a88"/>
  <path d="M0 108 Q32 100 64 110 T128 104 V128 H0 Z" fill="#fff" opacity=".18"/>
</svg>
