<svg xmlns="http://www.w3.org/2000/svg" viewBox="0 0 128 128" role="img" aria-label="Iskele">
  <defs>
    <linearGradient id="sky" x1="0" y1="0" x2="0" y2="1">
      <stop offset="0%" stop-color="#9ad4f5"/>
      <stop offset="100%" stop-color="#e7f7ff"/>
    </linearGradient>
    <linearGradient id="lake" x1="0" y1="0" x2="0" y2="1">
      <stop offset="0%" stop-color="#b8fff3"/>
      <stop offset="35%" stop-color="#2ec4b6"/>
      <stop offset="100%" stop-color="#0b6a64"/>
    </linearGradient>
    <mask id="ay">
      <circle cx="91" cy="16" r="6.4" fill="white"/>
      <circle cx="94.2" cy="14.6" r="5" fill="black"/>
    </mask>
  </defs>
  <rect width="128" height="128" fill="url(#sky)"/>
  <path d="M-6 70 L18 36 L40 58 L62 30 L86 56 L110 34 L134 64 V78 H-6 Z" fill="#145233"/>
  <path d="M-6 74 L30 56 L64 74 L100 58 L134 76 V84 H-6 Z" fill="#1f7a48"/>
  <rect x="0" y="70" width="128" height="58" fill="url(#lake)"/>
  <path d="M8 74 L20 58 L32 74 Z" fill="#3c2212"/>
  <rect x="12" y="70" width="16" height="10" fill="#c4843c"/>
  <path d="M34 76 L48 58 L62 76 Z" fill="#3a1e10"/>
  <rect x="38" y="70" width="20" height="12" fill="#d19654"/>
  <rect x="66" y="62" width="22" height="18" fill="#fbf8f1"/>
  <path d="M68 64 Q77 52 86 64 Z" fill="#f3eee4"/>
  <rect x="84" y="32" width="9" height="48" fill="#fbf8f1" stroke="#d5ccbc" stroke-width="1.1"/>
  <rect x="81" y="44" width="15" height="4" rx="2" fill="#ebe4d6"/>
  <path d="M84 32 L88.5 22 L93 32 Z" fill="#e6dfd0"/>
  <circle cx="91" cy="16" r="6.4" fill="#f5c518" mask="url(#ay)"/>
  <path d="M44 128 L56 78 H74 L92 128 Z" fill="#a86b34"/>
  <path d="M48 118 H86 M51 106 H80 M55 94 H76 M58 84 H72" stroke="#5c3a1e" stroke-width="3" stroke-linecap="round"/>
  <rect x="54" y="72" width="4" height="16" rx="1" fill="#4a2912"/>
  <rect x="72" y="72" width="4" height="16" rx="1" fill="#4a2912"/>
  <path d="M56 74 H74" stroke="#4a2912" stroke-width="3" stroke-linecap="round"/>
  <path d="M12 96 Q28 90 40 98" fill="none" stroke="#fff" stroke-width="2.5" stroke-linecap="round" opacity=".55"/>
  <path d="M96 104 Q110 98 122 106" fill="none" stroke="#fff" stroke-width="2.5" stroke-linecap="round" opacity=".4"/>
</svg>
