<svg xmlns="http://www.w3.org/2000/svg" viewBox="0 0 128 128" role="img" aria-label="Kalp">
  <defs>
    <linearGradient id="bg" x1="0" y1="0" x2="0" y2="1">
      <stop offset="0%" stop-color="#ffe8ef"/>
      <stop offset="100%" stop-color="#ffb3c7"/>
    </linearGradient>
    <linearGradient id="heart" x1="0" y1="0" x2="0" y2="1">
      <stop offset="0%" stop-color="#ff8fab"/>
      <stop offset="100%" stop-color="#e85d80"/>
    </linearGradient>
  </defs>
  <rect width="128" height="128" fill="url(#bg)"/>
  <path d="M64 104 C64 104 22 76 22 50 C22 34 34 26 48 32 C56 36 62 46 64 50 C66 46 72 36 80 32 C94 26 106 34 106 50 C106 76 64 104 64 104 Z" fill="url(#heart)"/>
  <ellipse cx="48" cy="58" rx="8" ry="5" fill="#ffd0dc" opacity=".55"/>
  <ellipse cx="80" cy="58" rx="8" ry="5" fill="#ffd0dc" opacity=".55"/>
  <circle cx="52" cy="54" r="3.4" fill="#5c2433"/>
  <circle cx="76" cy="54" r="3.4" fill="#5c2433"/>
  <circle cx="53.2" cy="52.8" r="1.2" fill="#fff"/>
  <circle cx="77.2" cy="52.8" r="1.2" fill="#fff"/>
  <path d="M54 64 Q64 74 74 64" fill="none" stroke="#7a243c" stroke-width="3" stroke-linecap="round"/>
</svg>
