<svg xmlns="http://www.w3.org/2000/svg" viewBox="0 0 256 256" role="img" aria-label="Kamp">
  <defs>
    <linearGradient id="kamp-sky" x1="0" y1="0" x2="0" y2="1">
      <stop offset="0%" stop-color="#1a1a2e"/>
      <stop offset="100%" stop-color="#16213e"/>
    </linearGradient>
    <linearGradient id="kamp-ground" x1="0" y1="0" x2="0" y2="1">
      <stop offset="0%" stop-color="#2d6a4f"/>
      <stop offset="100%" stop-color="#1b4332"/>
    </linearGradient>
  </defs>
  <rect width="256" height="256" rx="56" fill="url(#kamp-sky)"/>
  <circle cx="64" cy="64" r="2" fill="#fff" opacity=".9"/>
  <circle cx="96" cy="48" r="1.5" fill="#fff" opacity=".75"/>
  <circle cx="168" cy="56" r="2" fill="#fff" opacity=".85"/>
  <circle cx="196" cy="80" r="1.5" fill="#fff" opacity=".7"/>
  <circle cx="128" cy="40" r="1.5" fill="#fff" opacity=".8"/>
  <circle cx="188" cy="44" r="28" fill="#f4e4bc"/>
  <circle cx="188" cy="44" r="22" fill="#ffe8a3" opacity=".9"/>
  <path d="M0 176 Q64 156 128 168 T256 160 V256 H0Z" fill="url(#kamp-ground)"/>
  <polygon points="128,88 72,176 184,176" fill="#e76f51"/>
  <polygon points="128,104 92,168 164,168" fill="#f4a261" opacity=".55"/>
  <rect x="118" y="148" width="20" height="28" rx="2" fill="#6d4c41"/>
  <circle cx="176" cy="168" r="10" fill="#ff9f1c" opacity=".9"/>
  <circle cx="176" cy="168" r="16" fill="#ff9f1c" opacity=".25"/>
  <path d="M168 168 Q176 156 184 168 Q176 174 168 168Z" fill="#ffbf69"/>
</svg>
