<svg xmlns="http://www.w3.org/2000/svg" viewBox="0 0 256 256" role="img" aria-label="Orman">
  <defs>
    <linearGradient id="orman-sky" x1="0" y1="0" x2="0" y2="1">
      <stop offset="0%" stop-color="#b7e4c7"/>
      <stop offset="100%" stop-color="#74c69d"/>
    </linearGradient>
    <linearGradient id="orman-trunk" x1="0" y1="0" x2="0" y2="1">
      <stop offset="0%" stop-color="#8d5524"/>
      <stop offset="100%" stop-color="#5c3d2e"/>
    </linearGradient>
  </defs>
  <rect width="256" height="256" rx="56" fill="url(#orman-sky)"/>
  <ellipse cx="128" cy="210" rx="96" ry="14" fill="#1b4332" opacity=".35"/>
  <rect x="118" y="148" width="20" height="56" rx="4" fill="url(#orman-trunk)"/>
  <polygon points="128,56 72,148 184,148" fill="#1b4332"/>
  <polygon points="128,72 88,140 168,140" fill="#2d6a4f"/>
  <polygon points="128,88 104,132 152,132" fill="#40916c"/>
  <rect x="62" y="162" width="14" height="42" rx="3" fill="url(#orman-trunk)" opacity=".85"/>
  <polygon points="69,118 44,162 94,162" fill="#1b4332" opacity=".9"/>
  <polygon points="69,128 52,158 86,158" fill="#2d6a4f" opacity=".85"/>
  <rect x="180" y="168" width="14" height="36" rx="3" fill="url(#orman-trunk)" opacity=".85"/>
  <polygon points="187,124 162,168 212,168" fill="#1b4332" opacity=".9"/>
  <polygon points="187,134 170,162 204,162" fill="#2d6a4f" opacity=".85"/>
  <circle cx="48" cy="92" r="14" fill="#fff" opacity=".15"/>
</svg>
